<svg width="40" height="40" viewBox="0 0 40 40" fill="none" xmlns="http://www.w3.org/2000/svg">
<circle cx="20" cy="20" r="20" fill="url(#paint0_linear_26_8)"/>
<path fill-rule="evenodd" clip-rule="evenodd" d="M27.168 16.662C27.2855 16.2804 27.168 16 26.6094 16H24.7617C24.2919 16 24.0753 16.2422 23.958 16.5095C23.958 16.5095 23.0182 18.742 21.6872 20.1923C21.2567 20.6121 21.061 20.7458 20.8259 20.7458C20.7086 20.7458 20.5386 20.6121 20.5386 20.2307V16.662C20.5386 16.2042 20.4021 16 20.0107 16H17.1069C16.8134 16 16.6367 16.2126 16.6367 16.4142C16.6367 16.8483 17.3023 16.9485 17.3709 18.1698V20.8221C17.3709 21.4037 17.2632 21.5094 17.0283 21.5094C16.4021 21.5094 14.8783 19.2666 13.9746 16.7005C13.7974 16.2016 13.6199 16.0002 13.1478 16.0002H11.3001C10.7721 16 10.6666 16.2422 10.6666 16.5093C10.6666 16.9864 11.2928 19.3526 13.5831 22.4821C15.1099 24.6191 17.261 25.7778 19.2186 25.7778C20.3929 25.7778 20.5384 25.5204 20.5384 25.0771V23.462C20.5384 22.9473 20.6497 22.8446 21.0216 22.8446C21.2956 22.8446 21.7653 22.978 22.8615 24.0084C24.1143 25.2297 24.3208 25.7776 25.0256 25.7776H26.8732C27.4009 25.7776 27.665 25.5202 27.5128 25.0126C27.3459 24.5064 26.7479 23.7721 25.9543 22.9019C25.5236 22.4058 24.8775 21.8714 24.6818 21.6042C24.4076 21.2608 24.4861 21.1082 24.6818 20.8027C24.6818 20.8027 26.9333 17.7115 27.168 16.662Z" fill="#337E88"/>
<defs>
<linearGradient id="paint0_linear_26_8" x1="20" y1="0" x2="20" y2="40" gradientUnits="userSpaceOnUse">
<stop stop-color="#36838D" stop-opacity="0.68"/>
<stop offset="1" stop-color="#D9D9D9" stop-opacity="0"/>
</linearGradient>
</defs>
</svg>
