<svg width="140" height="31" viewBox="0 0 140 31" fill="none" xmlns="http://www.w3.org/2000/svg">
<g clip-path="url(#clip0_1_6)">
<path d="M0.0117188 0.0765239C3.67213 0.0880053 7.33252 0.0863652 10.9913 0.0765239C10.9863 0.481656 10.9879 0.888428 10.9962 1.29356C9.74791 1.31161 8.49129 1.21975 7.24795 1.35261C7.76854 3.30774 8.36703 5.24483 8.87259 7.20488C9.64514 10.1868 10.5503 13.131 11.3394 16.1079C11.9561 18.4748 12.644 20.8236 13.3088 23.1773C14.2124 20.5136 14.8639 17.7744 15.6662 15.0795C16.8632 11.0971 17.9291 7.07694 19.1277 3.09451C19.3035 2.49748 19.4907 1.90208 19.6101 1.29028C18.4729 1.28208 17.3356 1.29028 16.2 1.28699C16.1735 0.883507 16.1818 0.478376 16.205 0.0748841C19.882 0.089646 23.5607 0.0880053 27.2376 0.0765239C27.2342 0.480016 27.2342 0.883508 27.2376 1.28864C25.9976 1.29193 24.7575 1.27716 23.5175 1.30012C24.3696 4.81674 25.4854 8.2661 26.3756 11.7729C27.2392 14.9565 28.1875 18.1156 29.0181 21.3075C29.1938 21.9438 29.3264 22.5951 29.5983 23.2003C30.4902 19.9248 31.5213 16.6886 32.3983 13.4081C33.5703 9.37488 34.7424 5.34161 35.8564 1.29193C34.4738 1.28701 33.0912 1.2788 31.7103 1.29685C31.7667 0.906472 31.5678 0.401286 31.8165 0.0863648C34.6827 0.0716029 37.549 0.0978454 40.4136 0.0732422C40.422 0.480015 40.4253 0.885148 40.4253 1.29193C39.3295 1.30996 38.2287 1.22631 37.1379 1.34932C36.125 4.8807 35.1337 8.41701 34.0826 11.9369C33.0697 15.6749 31.9076 19.3703 30.8847 23.1067C30.1653 25.7229 29.2982 28.3013 28.6484 30.9371C28.1692 30.9486 27.6886 30.9486 27.2111 30.947C26.3657 27.4648 25.4058 24.0105 24.5703 20.5267C23.8275 17.4611 22.9754 14.4218 22.2477 11.3513C21.6293 8.7434 20.9165 6.15843 20.2566 3.56034C19.0763 7.53456 17.9921 11.5367 16.8019 15.5076C15.8768 18.9554 14.7827 22.354 13.8526 25.8C13.3785 27.5255 12.8579 29.2379 12.349 30.9519C11.8765 30.9437 11.4057 30.9453 10.9349 30.9502C10.1076 27.9897 9.35004 25.0094 8.48468 22.0603C7.72042 19.4081 7.05568 16.7297 6.28481 14.079C5.42938 11.1644 4.70163 8.21526 3.85448 5.29896C3.47649 3.98186 3.1002 2.66478 2.74874 1.34277C1.84027 1.2378 0.923501 1.3034 0.0117188 1.29028C0.0200077 0.885148 0.0183889 0.481656 0.0117188 0.0765239ZM52.2122 7.60345C53.9959 7.59361 55.7813 7.5969 57.5668 7.60182C58.6493 11.0856 59.9259 14.5054 61.0581 17.9729C61.6085 19.6803 62.2268 21.3649 62.8154 23.0592C63.5813 21.2352 64.1632 19.3424 64.8428 17.4857C66.0811 14.2053 67.1836 10.8773 68.4204 7.5969C70.1959 7.6051 71.973 7.5969 73.7501 7.5969C73.7518 7.87737 73.755 8.1562 73.76 8.43832C73.15 8.46128 72.5383 8.4252 71.9298 8.45637L71.8353 8.55806C71.8138 14.4989 71.8154 20.4414 71.8337 26.3822C72.5284 26.3806 73.2213 26.3806 73.9175 26.3789C73.9159 26.6726 73.9142 26.9662 73.9142 27.2614C71.5602 27.2548 69.2062 27.2663 66.852 27.2565C66.8538 26.9662 66.857 26.6759 66.8637 26.3856C67.5301 26.3806 68.1982 26.384 68.8646 26.3806C68.858 23.1117 68.868 19.8411 68.8596 16.5722C68.8547 16.267 68.8845 15.9636 68.9326 15.6635C69.0635 14.7154 68.9923 13.7559 69.0055 12.8029C68.9906 11.7876 69.047 10.7691 68.969 9.75542C68.7452 10.0326 68.5845 10.3525 68.5049 10.6985C67.4721 13.9051 66.2005 17.0298 65.1396 20.2281C64.1831 22.7622 63.3028 25.3243 62.3943 27.8765C62.0943 27.8716 61.7941 27.8651 61.4957 27.8519C60.8426 25.7459 60.0485 23.6874 59.387 21.5846C58.4769 18.7224 57.4209 15.9095 56.5241 13.044C56.1245 11.8975 55.7831 10.7297 55.3238 9.60615C55.2658 15.196 55.3072 20.7908 55.3023 26.384C56.166 26.3757 57.028 26.3905 57.8918 26.374C57.895 26.6692 57.9 26.9662 57.9049 27.2646C56.0483 27.2548 54.1932 27.2581 52.3381 27.263C52.3465 26.9678 52.3531 26.6726 52.3614 26.3789C52.9366 26.3806 53.5135 26.384 54.0904 26.3789C54.0871 20.4003 54.0921 14.4218 54.0871 8.44161C53.4754 8.44488 52.862 8.4416 52.2502 8.45472C52.2337 8.16932 52.2238 7.88558 52.2122 7.60345ZM91.6575 7.61821C93.2804 7.57393 94.9067 7.60837 96.5314 7.60017C98.03 10.1573 99.5801 12.6848 101.082 15.2387C102.327 17.2003 103.4 19.2686 104.716 21.186C104.744 16.9395 104.747 12.6897 104.714 8.44324C103.773 8.44816 102.831 8.44816 101.891 8.44488C101.891 8.15785 101.894 7.87245 101.901 7.58705C103.763 7.61002 105.626 7.59526 107.488 7.59526C107.488 7.87245 107.489 8.15128 107.498 8.43012C106.884 8.51377 106.203 8.31859 105.636 8.54166C105.628 14.9138 105.628 21.2878 105.638 27.6616C105.341 27.6584 105.044 27.66 104.751 27.6633C101.553 22.3556 98.3815 17.033 95.2019 11.7138C94.8968 11.2267 94.6133 10.7264 94.2801 10.259C94.2652 15.6338 94.2685 21.0073 94.2768 26.3822C95.2367 26.3806 96.1948 26.384 97.1547 26.3789C97.158 26.6726 97.163 26.9678 97.1664 27.263C95.3362 27.2433 93.506 27.2843 91.6774 27.2417C91.679 26.9629 91.6824 26.6857 91.6873 26.4086C92.2527 26.3708 92.8197 26.3789 93.3882 26.3806C93.3882 20.4021 93.3898 14.4235 93.3882 8.44488C92.8246 8.44816 92.2609 8.44488 91.6989 8.44817C91.684 8.17097 91.6708 7.89377 91.6575 7.61821ZM41.1216 7.83309C42.1145 7.52309 43.1706 7.58869 44.2001 7.59034C45.7617 7.57885 47.3433 8.15456 48.4673 9.24039C49.8515 10.5394 50.5145 12.4405 50.619 14.2922C50.6506 16.2573 50.6273 18.2222 50.6339 20.1872C50.6637 22.1849 50.062 24.2632 48.6678 25.7508C47.3532 27.0974 45.3969 27.6698 43.5387 27.619C41.715 27.6813 39.8285 27.0974 38.4939 25.8376C37.0832 24.4533 36.5312 22.4294 36.4648 20.5136C36.3007 18.9865 36.3985 17.4497 36.3703 15.9194C36.4665 14.5235 36.4946 13.0981 36.9838 11.7679C37.5905 9.88663 39.1919 8.34812 41.1216 7.83309ZM42.0946 8.54986C41.4431 8.67123 40.8331 9.05012 40.5181 9.63896C39.966 10.6542 39.8998 11.8401 39.8749 12.9702C39.8716 16.1392 39.8699 19.308 39.8749 22.4752C39.9181 23.653 40.0208 24.9224 40.7369 25.9114C41.3968 26.7317 42.5539 26.8414 43.5403 26.8399C44.5284 26.8432 45.6788 26.7284 46.3237 25.887C47.0564 24.9208 47.1195 23.6432 47.1294 22.4802C47.1161 18.9833 47.1543 15.4847 47.1078 11.9877C47.0349 10.8101 46.8012 9.34044 45.6058 8.76472C44.5035 8.31531 43.2518 8.39732 42.0946 8.54986ZM120.276 10.8002C121.183 10.3787 122.458 10.3065 123.194 11.0856C123.688 11.7679 123.815 12.6487 123.785 13.4705C123.734 14.0822 123.679 14.7516 123.273 15.2486C122.945 15.57 122.393 15.5962 121.988 15.424C121.372 15.0583 121.282 14.2676 121.227 13.6263C121.166 12.9522 121.34 12.2256 121.095 11.5875C120.528 11.5203 120.122 12.0763 119.772 12.447C118.998 13.4656 118.328 14.5924 117.889 15.7914C117.851 18.7684 117.885 21.7487 117.872 24.7273C118.88 24.7273 119.888 24.7076 120.896 24.7405C120.896 25.0209 120.901 25.3046 120.907 25.5868C118.348 25.6032 115.788 25.6048 113.229 25.5868C113.232 25.3046 113.235 25.0241 113.239 24.7437C113.946 24.7109 114.653 24.7273 115.362 24.7208C115.392 20.6383 115.362 16.5541 115.377 12.47C115.39 12.2125 115.314 11.9681 115.24 11.7269C114.57 11.7614 113.9 11.7434 113.232 11.7532C113.234 11.4711 113.234 11.1873 113.235 10.9068C114.362 10.8954 115.49 10.9216 116.617 10.897C117.245 11.7187 117.67 12.7078 117.786 13.7346C117.857 13.7362 117.996 13.7378 118.068 13.7378C118.611 12.6454 119.182 11.453 120.276 10.8002ZM135.179 10.8921C136.004 10.9134 136.834 10.9019 137.661 10.9019C137.656 14.7072 137.659 18.5109 137.659 22.3162C137.671 23.1067 137.585 23.9121 137.804 24.6863C138.461 24.7076 139.12 24.6994 139.779 24.6994C139.777 24.9995 139.777 25.2997 139.777 25.5999C138.545 25.5687 137.307 25.6459 136.082 25.5638C135.236 25.216 135.239 24.1597 135.113 23.4019C134.403 24.3632 133.545 25.3046 132.389 25.7311C131.352 26.1329 130.168 26.0952 129.134 25.7065C127.908 25.2176 127.184 23.9137 127.156 22.6443C127.147 19.0554 127.174 15.4633 127.144 11.8762L127.076 11.7598C126.369 11.7302 125.662 11.7565 124.956 11.7532C124.929 11.4858 124.906 11.2185 124.891 10.9528C126.485 10.9544 128.082 10.9282 129.677 10.9675C129.662 15.2452 129.667 19.5229 129.673 23.8022C129.606 24.4452 130.125 25.0291 130.761 25.1046C132.038 25.303 133.233 24.524 134.014 23.5873C134.423 23.0706 134.899 22.5654 135.148 21.9503C135.199 18.2665 135.137 14.5776 135.179 10.8921Z" fill="#010101"/>
<path d="M82.8254 7.15723C83.2034 7.15723 83.5847 7.15886 83.9661 7.16707C85.0304 10.997 86.0631 14.8383 87.1871 18.6518C87.895 21.2302 88.5995 23.8104 89.3405 26.3788C89.9556 26.3821 90.5707 26.3837 91.1856 26.3788C91.189 26.6725 91.1906 26.9677 91.194 27.2645C88.8897 27.2547 86.587 27.2629 84.2826 27.2613C84.2876 26.9693 84.2926 26.6774 84.3043 26.3871C85.0187 26.3756 85.7332 26.3888 86.4478 26.369C85.9172 24.4221 85.4066 22.4669 84.7998 20.5414C83.099 20.5512 81.3965 20.5414 79.6956 20.5463C79.054 22.4785 78.4091 24.4107 77.8638 26.3707C78.7672 26.3936 79.6707 26.3739 80.5759 26.3821C80.5775 26.6741 80.5775 26.9693 80.5808 27.2629C78.6645 27.258 76.7497 27.258 74.8332 27.2645C74.8316 26.9677 74.8316 26.6709 74.8332 26.3756C75.4698 26.3428 76.1346 26.4675 76.7547 26.3215C77.8222 23.0377 78.86 19.7459 79.8796 16.4474C80.914 13.3671 81.8142 10.2457 82.8254 7.15723ZM82.3895 12.0598C81.5174 14.6071 80.7151 17.1772 79.9508 19.7574C81.4959 19.7721 83.0426 19.7705 84.5894 19.7574C84.0456 17.725 83.5101 15.6913 82.9332 13.6672C82.7757 13.1244 82.6581 12.5634 82.3895 12.0598ZM108.939 21.9388C110.147 21.3352 111.561 22.5391 111.52 23.7874C111.671 25.0749 110.371 26.4134 109.047 25.9295C107.364 25.339 107.274 22.6031 108.939 21.9388Z" fill="#020202"/>
<path d="M82.39 12.0596C82.6585 12.5631 82.7762 13.1241 82.9337 13.667C83.5106 15.6911 84.0461 17.7248 84.5898 19.7571C83.0431 19.7703 81.4964 19.7719 79.9513 19.7571C80.7156 17.177 81.5179 14.6068 82.39 12.0596Z" fill="#FEFEFE"/>
<path d="M69.3783 9.59521H68.881V16.6071H69.3783V9.59521Z" fill="#010101"/>
</g>
<defs>
<clipPath id="clip0_1_6">
<rect width="140" height="31" fill="white"/>
</clipPath>
</defs>
</svg>
