<svg width="176" height="85" viewBox="0 0 176 85" fill="none" xmlns="http://www.w3.org/2000/svg">
<path d="M0.367578 41.72C0.367578 14.22 17.5276 1.79 35.6776 1.68C53.9376 1.79 71.0976 14.22 71.0976 41.72C71.0976 69.77 53.9376 81.65 35.6776 81.76C17.5276 81.65 0.367578 69.77 0.367578 41.72ZM35.6776 3.22C22.5876 3.22 11.1476 10.37 11.1476 41.72C11.1476 73.51 22.5876 80.22 35.6776 80.22C48.8776 80.22 60.4276 73.29 60.4276 41.72C60.4276 10.37 48.8776 3.22 35.6776 3.22ZM78.2355 67.57L79.6655 66.91C86.4855 76.48 97.1555 80.22 105.516 80.22C125.316 80.22 130.046 72.85 130.046 58.55C130.046 44.69 123.006 39.3 106.946 39.3H101.336V37.87C115.086 37.87 125.096 37.87 125.096 20.82C125.096 7.73 121.136 3.22 107.496 3.22C91.2155 3.22 90.7755 16.75 90.7755 27.2L79.7755 24.23C79.7755 8.5 94.2955 1.79 107.496 1.79C124.326 1.79 136.866 5.86 136.866 20.82C136.866 32.37 128.506 36.66 119.596 38.31C132.576 38.31 142.806 45.79 142.806 58.55C142.806 74.94 132.136 81.76 105.516 81.76C96.9355 81.76 84.8355 77.91 78.2355 67.57ZM175.5 0.359996L148.99 84.51H147.23L173.74 0.359996H175.5Z" fill="#535454" fill-opacity="0.1"/>
</svg>
