<svg width="11" height="18" viewBox="0 0 11 18" fill="none" xmlns="http://www.w3.org/2000/svg">
<path d="M4.97259 12.5962C3.66172 12.4592 2.47928 12.1338 1.46723 11.3367C1.34136 11.2374 1.21122 11.1415 1.09734 11.031C0.653818 10.6029 0.609295 10.1114 0.960345 9.60627C1.26002 9.17302 1.76348 9.05743 2.28663 9.30659C2.38766 9.35369 2.48356 9.41448 2.57689 9.47869C4.46314 10.7836 7.05491 10.8195 8.94801 9.53777C9.13638 9.39222 9.33673 9.27406 9.56877 9.21412C10.0209 9.09768 10.4421 9.26464 10.6844 9.66278C10.9618 10.1166 10.9584 10.5618 10.6168 10.9137C10.0936 11.4557 9.46345 11.847 8.76392 12.1201C8.10207 12.3787 7.37685 12.5089 6.66019 12.5945C6.76808 12.7135 6.81945 12.7717 6.88709 12.8402C7.86061 13.8249 8.83927 14.8069 9.81022 15.795C10.1407 16.1324 10.2101 16.5493 10.0277 16.9415C9.8282 17.3696 9.38297 17.6513 8.94544 17.6213C8.66888 17.6016 8.45312 17.4629 8.26047 17.2686C7.52583 16.5237 6.7775 15.7925 6.05742 15.0338C5.84764 14.8129 5.74661 14.8549 5.56167 15.0467C4.82275 15.813 4.07184 16.5673 3.31495 17.3182C2.97588 17.6547 2.57175 17.7155 2.17789 17.5237C1.76005 17.3182 1.49291 16.8893 1.51432 16.4569C1.52802 16.1641 1.67101 15.9414 1.87051 15.7411C2.83461 14.7718 3.79529 13.8 4.75682 12.8299C4.82018 12.7649 4.88011 12.6964 4.97259 12.5962Z" fill="#337E88"/>
<path d="M5.77168 9.17694C3.43249 9.16838 1.51456 7.2162 1.52741 4.85646C1.54111 2.47104 3.46075 0.549685 5.82306 0.555678C8.18965 0.561672 10.0896 2.51214 10.0785 4.92239C10.0656 7.277 8.13485 9.18465 5.77168 9.17694ZM7.89768 4.8616C7.89925 4.58586 7.84632 4.31253 7.74192 4.05732C7.63752 3.8021 7.48371 3.57004 7.28932 3.37446C7.09494 3.17888 6.86382 3.02365 6.60925 2.91769C6.35468 2.81173 6.08168 2.75712 5.80593 2.75702C5.5276 2.75675 5.25199 2.81194 4.99522 2.91937C4.73846 3.02681 4.50567 3.18432 4.31045 3.38273C4.11524 3.58113 3.96151 3.81644 3.85826 4.07491C3.755 4.33339 3.70428 4.60985 3.70905 4.88814C3.70938 5.16399 3.76427 5.43705 3.87056 5.69161C3.97685 5.94616 4.13243 6.17717 4.32836 6.37135C4.52429 6.56553 4.75669 6.71903 5.01219 6.82303C5.26768 6.92703 5.54122 6.97946 5.81706 6.97732C6.0929 6.97632 6.36581 6.92069 6.62003 6.81363C6.87425 6.70657 7.10474 6.55021 7.29819 6.35357C7.49165 6.15694 7.64422 5.92393 7.74712 5.66799C7.85001 5.41206 7.90118 5.13828 7.89768 4.86246V4.8616Z" fill="#337E88"/>
</svg>
