<svg width="168" height="85" viewBox="0 0 168 85" fill="none" xmlns="http://www.w3.org/2000/svg">
<path d="M0.718164 41.72C0.718164 14.22 17.8782 1.79 36.0282 1.68C54.2882 1.79 71.4482 14.22 71.4482 41.72C71.4482 69.77 54.2882 81.65 36.0282 81.76C17.8782 81.65 0.718164 69.77 0.718164 41.72ZM36.0282 3.22C22.9382 3.22 11.4982 10.37 11.4982 41.72C11.4982 73.51 22.9382 80.22 36.0282 80.22C49.2282 80.22 60.7782 73.29 60.7782 41.72C60.7782 10.37 49.2282 3.22 36.0282 3.22ZM99.3761 81.65C90.0261 81.65 83.3161 79.01 80.2361 77.58L80.7861 76.04C83.7561 77.47 90.1361 80 99.3761 80C113.456 80 124.126 74.94 124.126 51.62C124.126 33.14 118.076 24.67 106.086 24.67C89.3661 24.67 86.1761 36.99 82.8761 50.41H81.0061L84.1961 3.33H130.726V13.67H85.2961L83.5361 41.06C87.6061 28.3 94.2061 23.02 105.976 23.02C122.036 23.02 135.016 33.03 135.016 51.62C135.016 76.15 117.526 81.65 99.3761 81.65ZM167.15 0.359996L140.64 84.51H138.88L165.39 0.359996H167.15Z" fill="#535454" fill-opacity="0.1"/>
</svg>
