<svg width="187" height="92" viewBox="0 0 187 92" fill="none" xmlns="http://www.w3.org/2000/svg">
<path d="M0.895313 45.24C0.895313 15.24 19.6153 1.68 39.4153 1.56C59.3353 1.68 78.0553 15.24 78.0553 45.24C78.0553 75.84 59.3353 88.8 39.4153 88.92C19.6153 88.8 0.895313 75.84 0.895313 45.24ZM39.4153 3.24C25.1353 3.24 12.6553 11.04 12.6553 45.24C12.6553 79.92 25.1353 87.24 39.4153 87.24C53.8153 87.24 66.4153 79.68 66.4153 45.24C66.4153 11.04 53.8153 3.24 39.4153 3.24ZM87.6422 27.72C87.6422 9.24 102.522 1.8 117.162 1.8C133.842 1.8 147.042 10.92 147.042 28.8C147.042 46.68 128.202 51.84 114.162 56.76C103.122 60.6 94.4822 63.6 91.3622 75.6H150.042V87H88.1222C88.1222 63.72 99.2822 59.76 113.562 54.84C127.842 49.92 135.282 45.96 135.282 28.8C135.282 11.16 127.002 3.36 117.162 3.36C101.922 3.36 100.122 18 100.122 29.4L87.6422 27.72ZM186.324 0.119996L157.404 91.92H155.484L184.404 0.119996H186.324Z" fill="#535454" fill-opacity="0.1"/>
</svg>
