<svg width="140" height="85" viewBox="0 0 140 85" fill="none" xmlns="http://www.w3.org/2000/svg">
<path d="M0.575586 41.72C0.575586 14.22 17.7356 1.79 35.8856 1.68C54.1456 1.79 71.3056 14.22 71.3056 41.72C71.3056 69.77 54.1456 81.65 35.8856 81.76C17.7356 81.65 0.575586 69.77 0.575586 41.72ZM35.8856 3.22C22.7956 3.22 11.3556 10.37 11.3556 41.72C11.3556 73.51 22.7956 80.22 35.8856 80.22C49.0856 80.22 60.6356 73.29 60.6356 41.72C60.6356 10.37 49.0856 3.22 35.8856 3.22ZM80.0936 59.21L78.4436 58.33C78.6636 58 95.0536 26.87 95.0536 3.33H105.504V80H95.0536V18.73C90.6536 38.97 80.2036 58.88 80.0936 59.21ZM139.292 0.359996L112.782 84.51H111.022L137.532 0.359996H139.292Z" fill="#535454" fill-opacity="0.1"/>
</svg>
