<svg width="184" height="92" viewBox="0 0 184 92" fill="none" xmlns="http://www.w3.org/2000/svg">
<path d="M0.00859377 45.24C0.00859377 15.24 18.7286 1.68 38.5286 1.56C58.4486 1.68 77.1686 15.24 77.1686 45.24C77.1686 75.84 58.4486 88.8 38.5286 88.92C18.7286 88.8 0.00859377 75.84 0.00859377 45.24ZM38.5286 3.24C24.2486 3.24 11.7686 11.04 11.7686 45.24C11.7686 79.92 24.2486 87.24 38.5286 87.24C52.9286 87.24 65.5286 79.68 65.5286 45.24C65.5286 11.04 52.9286 3.24 38.5286 3.24ZM129.235 73.32H84.9555V71.4C89.5155 71.4 100.435 60.24 110.755 45C119.635 31.92 129.235 14.04 129.235 3.36H140.635V71.4H149.995V73.32H140.635V87H129.235V73.32ZM89.9955 71.4H129.235V13.92C123.835 30.24 104.395 61.8 89.9955 71.4ZM183.211 0.119996L154.291 91.92H152.371L181.291 0.119996H183.211Z" fill="#535454" fill-opacity="0.1"/>
</svg>
