<?xml version="1.0" encoding="utf-8"?><svg width="11" height="18" fill="none" xmlns="http://www.w3.org/2000/svg" viewBox="0 0 11 18"><path d="M4.973 12.596c-1.311-.137-2.494-.462-3.506-1.26-.126-.099-.256-.194-.37-.305-.443-.428-.488-.92-.137-1.425.3-.433.803-.549 1.327-.3.1.048.197.108.29.173 1.886 1.305 4.478 1.34 6.371.059.188-.146.389-.264.62-.324a.972.972 0 011.116.449c.278.454.274.899-.067 1.25a5.128 5.128 0 01-1.853 1.207c-.662.259-1.387.389-2.104.475.108.118.16.177.227.245.974.985 1.952 1.967 2.923 2.955.33.337.4.754.218 1.147-.2.428-.645.71-1.083.68-.276-.02-.492-.16-.685-.353-.734-.745-1.482-1.476-2.203-2.235-.21-.221-.31-.18-.495.013-.74.766-1.49 1.52-2.247 2.271-.34.337-.743.397-1.137.206-.418-.206-.685-.635-.664-1.067.014-.293.157-.516.357-.716.964-.97 1.924-1.941 2.886-2.911.063-.065.123-.134.216-.234z" fill="#337E88"/><path d="M5.772 9.177c-2.34-.009-4.257-1.96-4.245-4.32C1.541 2.47 3.461.55 5.823.555c2.367.006 4.267 1.956 4.255 4.366-.012 2.355-1.943 4.263-4.306 4.255zm2.126-4.315a2.093 2.093 0 00-4.04-.787 2.095 2.095 0 00-.149.813 2.092 2.092 0 002.108 2.09 2.088 2.088 0 002.08-2.116z" fill="#337E88"/></svg>