<?xml version="1.0" encoding="utf-8"?><svg width="40" height="40" fill="none" xmlns="http://www.w3.org/2000/svg" viewBox="0 0 40 40"><circle cx="20" cy="20" r="20" fill="url(#bpaint0_linear_26_8)"/><path fill-rule="evenodd" clip-rule="evenodd" d="M27.168 16.662c.117-.382 0-.662-.559-.662h-1.847c-.47 0-.687.242-.804.51 0 0-.94 2.232-2.27 3.682-.431.42-.627.554-.862.554-.117 0-.287-.134-.287-.515v-3.569c0-.458-.137-.662-.528-.662h-2.904c-.294 0-.47.213-.47.414 0 .434.665.534.734 1.756v2.652c0 .582-.108.687-.343.687-.626 0-2.15-2.242-3.053-4.808-.178-.5-.355-.7-.827-.7H11.3c-.528-.001-.633.241-.633.508 0 .477.626 2.844 2.916 5.973 1.527 2.137 3.678 3.296 5.636 3.296 1.174 0 1.32-.258 1.32-.7v-1.616c0-.515.11-.617.483-.617.274 0 .743.133 1.84 1.163 1.252 1.222 1.459 1.77 2.164 1.77h1.847c.528 0 .792-.258.64-.765-.167-.507-.765-1.24-1.559-2.111-.43-.496-1.076-1.03-1.272-1.298-.274-.343-.196-.496 0-.801 0 0 2.251-3.091 2.486-4.141z" fill="#337E88"/><defs><linearGradient id="bpaint0_linear_26_8" x1="20" y1="0" x2="20" y2="40" gradientUnits="userSpaceOnUse"><stop stop-color="#36838D" stop-opacity=".68"/><stop offset="1" stop-color="#D9D9D9" stop-opacity="0"/></linearGradient></defs></svg>