<?xml version="1.0" encoding="utf-8"?><svg width="140" height="31" fill="none" xmlns="http://www.w3.org/2000/svg" viewBox="0 0 140 31"><g clip-path="url(#dclip0_1_6)"><path d="M.012.077c3.66.011 7.32.01 10.98 0-.006.405-.004.811.004 1.217-1.248.018-2.505-.074-3.748.059.52 1.955 1.119 3.892 1.625 5.852.772 2.982 1.677 5.926 2.466 8.903.617 2.367 1.305 4.716 1.97 7.07.903-2.664 1.555-5.404 2.357-8.099 1.197-3.982 2.263-8.002 3.462-11.984.175-.598.363-1.193.482-1.805-1.137-.008-2.274 0-3.41-.003a9.863 9.863 0 01.005-1.212c3.677.015 7.356.013 11.033.002-.004.403-.004.807 0 1.212-1.24.003-2.48-.012-3.72.011.852 3.517 1.967 6.966 2.858 10.473.863 3.184 1.811 6.343 2.642 9.535.176.636.308 1.287.58 1.892.892-3.275 1.923-6.511 2.8-9.792 1.172-4.033 2.344-8.066 3.458-12.116-1.382-.005-2.765-.013-4.146.005.057-.39-.142-.896.107-1.21 2.866-.015 5.732.01 8.597-.014.008.407.011.812.011 1.219-1.095.018-2.196-.066-3.287.057-1.013 3.532-2.004 7.068-3.055 10.588-1.013 3.738-2.175 7.433-3.198 11.17-.72 2.616-1.587 5.194-2.237 7.83-.479.012-.96.012-1.437.01-.845-3.482-1.805-6.936-2.64-10.42-.744-3.066-1.596-6.105-2.323-9.176-.619-2.608-1.332-5.193-1.991-7.79-1.18 3.974-2.265 7.976-3.455 11.947-.925 3.447-2.02 6.846-2.95 10.292-.473 1.726-.994 3.438-1.503 5.152a50.893 50.893 0 00-1.414-.002c-.827-2.96-1.585-5.94-2.45-8.89-.765-2.652-1.43-5.33-2.2-7.981-.856-2.915-1.583-5.864-2.43-8.78a209.316 209.316 0 01-1.106-3.956C1.84 1.238.924 1.303.012 1.29a32.83 32.83 0 000-1.213zm52.2 7.526c1.784-.01 3.57-.006 5.355-.001 1.082 3.484 2.359 6.903 3.491 10.37.55 1.708 1.169 3.393 1.757 5.087.766-1.824 1.348-3.717 2.028-5.573 1.238-3.28 2.34-6.609 3.577-9.89 1.776.01 3.553 0 5.33 0 .002.281.005.56.01.842-.61.023-1.222-.013-1.83.018l-.095.102c-.021 5.94-.02 11.883-.001 17.824l2.084-.003c-.002.294-.004.587-.004.882-2.354-.006-4.708.005-7.062-.005.002-.29.005-.58.012-.87.666-.005 1.334-.002 2-.005-.006-3.27.004-6.54-.004-9.809a5.213 5.213 0 01.073-.908c.13-.949.06-1.908.072-2.861-.014-1.015.042-2.034-.036-3.048a2.335 2.335 0 00-.464.943c-1.033 3.207-2.304 6.332-3.365 9.53-.957 2.534-1.837 5.096-2.746 7.648-.3-.004-.6-.01-.898-.024-.653-2.106-1.448-4.165-2.109-6.267-.91-2.863-1.966-5.676-2.863-8.541-.4-1.146-.74-2.314-1.2-3.438-.058 5.59-.017 11.185-.022 16.778.864-.008 1.726.006 2.59-.01.003.295.008.592.013.89-1.857-.01-3.712-.006-5.567-.001l.023-.884c.576.002 1.153.005 1.73 0-.004-5.979.001-11.957-.004-17.937-.612.003-1.225 0-1.837.013-.016-.286-.026-.57-.038-.852zm39.445.015c1.623-.044 3.25-.01 4.874-.018 1.499 2.557 3.05 5.085 4.551 7.639 1.245 1.961 2.318 4.03 3.634 5.947.028-4.247.031-8.496-.002-12.743-.941.005-1.883.005-2.823.002 0-.287.003-.573.01-.858 1.862.023 3.725.008 5.587.008 0 .277.001.556.01.835-.614.084-1.295-.111-1.862.112-.008 6.372-.008 12.746.002 19.12a40.3 40.3 0 00-.887.001c-3.198-5.307-6.37-10.63-9.55-15.95-.304-.486-.588-.987-.92-1.454-.016 5.375-.013 10.748-.004 16.123.96-.001 1.918.002 2.878-.003l.011.884c-1.83-.02-3.66.021-5.489-.021.002-.28.005-.556.01-.833.566-.038 1.133-.03 1.701-.028 0-5.979.002-11.957 0-17.936-.563.003-1.127 0-1.69.003l-.04-.83zm-50.535.215c.992-.31 2.049-.244 3.078-.243 1.562-.011 3.143.565 4.267 1.65 1.385 1.3 2.047 3.2 2.152 5.052.032 1.965.008 3.93.015 5.895.03 1.998-.572 4.076-1.966 5.564-1.315 1.346-3.271 1.919-5.13 1.868-1.823.062-3.71-.522-5.044-1.781-1.41-1.385-1.963-3.409-2.03-5.324-.163-1.527-.066-3.064-.094-4.595.097-1.396.125-2.82.614-4.151.606-1.881 2.208-3.42 4.138-3.935zm.973.717c-.652.121-1.262.5-1.577 1.089-.552 1.015-.618 2.201-.643 3.331-.003 3.17-.005 6.338 0 9.505.043 1.178.146 2.447.862 3.436.66.82 1.817.93 2.803.929.988.003 2.139-.112 2.784-.953.732-.966.796-2.244.805-3.407-.013-3.497.025-6.995-.021-10.492-.073-1.178-.307-2.648-1.502-3.223-1.102-.45-2.354-.368-3.511-.215zm78.181 2.25c.907-.421 2.182-.494 2.918.286.494.682.621 1.563.591 2.384-.051.612-.106 1.282-.512 1.779-.328.321-.88.347-1.285.175-.616-.366-.706-1.156-.761-1.798-.061-.674.113-1.4-.132-2.038-.567-.068-.973.488-1.323.859-.774 1.019-1.444 2.145-1.883 3.344-.038 2.977-.004 5.958-.017 8.936 1.008 0 2.016-.02 3.024.014 0 .28.005.564.011.846-2.559.016-5.119.018-7.678 0l.01-.843c.707-.033 1.414-.017 2.123-.023.03-4.083 0-8.167.015-12.251.013-.258-.063-.502-.137-.743-.67.034-1.34.016-2.008.026l.003-.846c1.127-.012 2.255.015 3.382-.01.628.822 1.053 1.81 1.169 2.838l.282.003c.543-1.093 1.114-2.285 2.208-2.938zm14.903.092c.825.021 1.655.01 2.482.01-.005 3.805-.002 7.609-.002 11.414.012.79-.074 1.596.145 2.37.657.022 1.316.013 1.975.013-.002.3-.002.6-.002.9-1.232-.03-2.47.047-3.695-.035-.846-.348-.843-1.404-.969-2.162-.71.961-1.568 1.903-2.724 2.33-1.037.4-2.221.363-3.255-.026-1.226-.488-1.95-1.792-1.978-3.062-.009-3.589.018-7.18-.012-10.768l-.068-.116c-.707-.03-1.414-.003-2.12-.007-.027-.267-.05-.534-.065-.8 1.594.001 3.191-.025 4.786.014-.015 4.278-.01 8.556-.004 12.835-.067.643.452 1.227 1.088 1.303 1.277.198 2.472-.581 3.253-1.518.409-.516.885-1.022 1.134-1.637.051-3.683-.011-7.372.031-11.058z" fill="#010101"/><path d="M82.825 7.157c.378 0 .76.002 1.141.01 1.064 3.83 2.097 7.671 3.221 11.485.708 2.578 1.413 5.158 2.154 7.727.615.003 1.23.005 1.845 0l.008.886c-2.304-.01-4.607-.002-6.911-.004.005-.292.01-.584.021-.874.715-.011 1.43.002 2.144-.018-.53-1.947-1.041-3.902-1.648-5.828-1.701.01-3.403 0-5.104.005-.642 1.933-1.287 3.865-1.832 5.825.903.023 1.807.003 2.712.011.002.292.002.587.005.88a965.94 965.94 0 00-5.748.003 82.307 82.307 0 010-.89c.637-.032 1.302.093 1.922-.053a713.625 713.625 0 003.125-9.875c1.034-3.08 1.934-6.201 2.945-9.29zm-.436 4.903a192.86 192.86 0 00-2.438 7.697c1.545.015 3.092.013 4.638 0-.543-2.032-1.079-4.066-1.656-6.09-.157-.543-.275-1.104-.544-1.607zm26.55 9.879c1.208-.604 2.622.6 2.581 1.848.151 1.288-1.149 2.626-2.473 2.143-1.683-.591-1.773-3.327-.108-3.991z" fill="#020202"/><path d="M82.39 12.06c.269.503.386 1.064.544 1.607.577 2.024 1.112 4.058 1.656 6.09-1.547.013-3.094.015-4.639 0 .765-2.58 1.567-5.15 2.439-7.697z" fill="#FEFEFE"/><path d="M69.378 9.595h-.497v7.012h.497V9.595z" fill="#010101"/></g><defs><clipPath id="dclip0_1_6"><path fill="#fff" d="M0 0h140v31H0z"/></clipPath></defs></svg>