<?xml version="1.0" encoding="utf-8"?><svg width="168" height="85" fill="none" xmlns="http://www.w3.org/2000/svg" viewBox="0 0 168 85"><path d="M.718 41.72c0-27.5 17.16-39.93 35.31-40.04 18.26.11 35.42 12.54 35.42 40.04 0 28.05-17.16 39.93-35.42 40.04C17.878 81.65.718 69.77.718 41.72zm35.31-38.5c-13.09 0-24.53 7.15-24.53 38.5 0 31.79 11.44 38.5 24.53 38.5 13.2 0 24.75-6.93 24.75-38.5 0-31.35-11.55-38.5-24.75-38.5zm63.348 78.43c-9.35 0-16.06-2.64-19.14-4.07l.55-1.54c2.97 1.43 9.35 3.96 18.59 3.96 14.08 0 24.75-5.06 24.75-28.38 0-18.48-6.05-26.95-18.04-26.95-16.72 0-19.91 12.32-23.21 25.74h-1.87l3.19-47.08h46.53v10.34h-45.43l-1.76 27.39c4.07-12.76 10.67-18.04 22.44-18.04 16.06 0 29.04 10.01 29.04 28.6 0 24.53-17.49 30.03-35.64 30.03zM167.15.36l-26.51 84.15h-1.76L165.39.36h1.76z" fill="#535454" fill-opacity=".1"/></svg>