<?xml version="1.0" encoding="utf-8"?><svg width="140" height="85" fill="none" xmlns="http://www.w3.org/2000/svg" viewBox="0 0 140 85"><path d="M.576 41.72c0-27.5 17.16-39.93 35.31-40.04 18.26.11 35.42 12.54 35.42 40.04 0 28.05-17.16 39.93-35.42 40.04C17.736 81.65.576 69.77.576 41.72zm35.31-38.5c-13.09 0-24.53 7.15-24.53 38.5 0 31.79 11.44 38.5 24.53 38.5 13.2 0 24.75-6.93 24.75-38.5 0-31.35-11.55-38.5-24.75-38.5zm44.208 55.99l-1.65-.88c.22-.33 16.61-31.46 16.61-55h10.45V80h-10.45V18.73c-4.4 20.24-14.85 40.15-14.96 40.48zM139.292.36l-26.51 84.15h-1.76L137.532.36h1.76z" fill="#535454" fill-opacity=".1"/></svg>