<?xml version="1.0" encoding="utf-8"?><svg width="184" height="92" fill="none" xmlns="http://www.w3.org/2000/svg" viewBox="0 0 184 92"><path d="M.009 45.24c0-30 18.72-43.56 38.52-43.68 19.92.12 38.64 13.68 38.64 43.68 0 30.6-18.72 43.56-38.64 43.68C18.729 88.8.009 75.84.009 45.24zm38.52-42c-14.28 0-26.76 7.8-26.76 42 0 34.68 12.48 42 26.76 42 14.4 0 27-7.56 27-42 0-34.2-12.6-42-27-42zm90.706 70.08h-44.28V71.4c4.56 0 15.48-11.16 25.8-26.4 8.88-13.08 18.48-30.96 18.48-41.64h11.4V71.4h9.36v1.92h-9.36V87h-11.4V73.32zm-39.24-1.92h39.24V13.92c-5.4 16.32-24.84 47.88-39.24 57.48zM183.212.12l-28.92 91.8h-1.92l28.92-91.8h1.92z" fill="#535454" fill-opacity=".1"/></svg>