<?xml version="1.0" encoding="utf-8"?><svg width="176" height="85" fill="none" xmlns="http://www.w3.org/2000/svg" viewBox="0 0 176 85"><path d="M.368 41.72c0-27.5 17.16-39.93 35.31-40.04 18.26.11 35.42 12.54 35.42 40.04 0 28.05-17.16 39.93-35.42 40.04C17.528 81.65.368 69.77.368 41.72zm35.31-38.5c-13.09 0-24.53 7.15-24.53 38.5 0 31.79 11.44 38.5 24.53 38.5 13.2 0 24.75-6.93 24.75-38.5 0-31.35-11.55-38.5-24.75-38.5zm42.558 64.35l1.43-.66c6.82 9.57 17.49 13.31 25.85 13.31 19.8 0 24.53-7.37 24.53-21.67 0-13.86-7.04-19.25-23.1-19.25h-5.61v-1.43c13.75 0 23.76 0 23.76-17.05 0-13.09-3.96-17.6-17.6-17.6-16.28 0-16.72 13.53-16.72 23.98l-11-2.97c0-15.73 14.52-22.44 27.72-22.44 16.83 0 29.37 4.07 29.37 19.03 0 11.55-8.36 15.84-17.27 17.49 12.98 0 23.21 7.48 23.21 20.24 0 16.39-10.67 23.21-37.29 23.21-8.58 0-20.68-3.85-27.28-14.19zM175.5.36l-26.51 84.15h-1.76L173.74.36h1.76z" fill="#535454" fill-opacity=".1"/></svg>