<?xml version="1.0" encoding="utf-8"?><svg width="187" height="92" fill="none" xmlns="http://www.w3.org/2000/svg" viewBox="0 0 187 92"><path d="M.895 45.24c0-30 18.72-43.56 38.52-43.68 19.92.12 38.64 13.68 38.64 43.68 0 30.6-18.72 43.56-38.64 43.68C19.615 88.8.895 75.84.895 45.24zm38.52-42c-14.28 0-26.76 7.8-26.76 42 0 34.68 12.48 42 26.76 42 14.4 0 27-7.56 27-42 0-34.2-12.6-42-27-42zm48.227 24.48c0-18.48 14.88-25.92 29.52-25.92 16.68 0 29.88 9.12 29.88 27 0 17.88-18.84 23.04-32.88 27.96-11.04 3.84-19.68 6.84-22.8 18.84h58.68V87h-61.92c0-23.28 11.16-27.24 25.44-32.16 14.28-4.92 21.72-8.88 21.72-26.04 0-17.64-8.28-25.44-18.12-25.44-15.24 0-17.04 14.64-17.04 26.04l-12.48-1.68zM186.324.12l-28.92 91.8h-1.92l28.92-91.8h1.92z" fill="#535454" fill-opacity=".1"/></svg>