<?xml version="1.0" encoding="utf-8"?><svg viewBox="0 0 198 132" xmlns="http://www.w3.org/2000/svg" xmlns:xlink="http://www.w3.org/1999/xlink"><style>:root>svg{display:none}:root>svg:target{display:block}</style><svg fill="none" viewBox="0 0 11 18" id="1" xmlns="http://www.w3.org/2000/svg"><path d="M4.973 12.596c-1.311-.137-2.494-.462-3.506-1.26-.126-.099-.256-.194-.37-.305-.443-.428-.488-.92-.137-1.425.3-.433.803-.549 1.327-.3.1.048.197.108.29.173 1.886 1.305 4.478 1.34 6.371.059.188-.146.389-.264.62-.324a.972.972 0 011.116.449c.278.454.274.899-.067 1.25a5.128 5.128 0 01-1.853 1.207c-.662.259-1.387.389-2.104.475.108.118.16.177.227.245.974.985 1.952 1.967 2.923 2.955.33.337.4.754.218 1.147-.2.428-.645.71-1.083.68-.276-.02-.492-.16-.685-.353-.734-.745-1.482-1.476-2.203-2.235-.21-.221-.31-.18-.495.013-.74.766-1.49 1.52-2.247 2.271-.34.337-.743.397-1.137.206-.418-.206-.685-.635-.664-1.067.014-.293.157-.516.357-.716.964-.97 1.924-1.941 2.886-2.911.063-.065.123-.134.216-.234z" fill="#337E88"/><path d="M5.772 9.177c-2.34-.009-4.257-1.96-4.245-4.32C1.541 2.47 3.461.55 5.823.555c2.367.006 4.267 1.956 4.255 4.366-.012 2.355-1.943 4.263-4.306 4.255zm2.126-4.315a2.093 2.093 0 00-4.04-.787 2.095 2.095 0 00-.149.813 2.092 2.092 0 002.108 2.09 2.088 2.088 0 002.08-2.116z" fill="#337E88"/></svg><svg fill="none" viewBox="0 0 40 40" id="2" xmlns="http://www.w3.org/2000/svg"><circle cx="20" cy="20" r="20" fill="url(#bpaint0_linear_26_8)"/><path fill-rule="evenodd" clip-rule="evenodd" d="M27.168 16.662c.117-.382 0-.662-.559-.662h-1.847c-.47 0-.687.242-.804.51 0 0-.94 2.232-2.27 3.682-.431.42-.627.554-.862.554-.117 0-.287-.134-.287-.515v-3.569c0-.458-.137-.662-.528-.662h-2.904c-.294 0-.47.213-.47.414 0 .434.665.534.734 1.756v2.652c0 .582-.108.687-.343.687-.626 0-2.15-2.242-3.053-4.808-.178-.5-.355-.7-.827-.7H11.3c-.528-.001-.633.241-.633.508 0 .477.626 2.844 2.916 5.973 1.527 2.137 3.678 3.296 5.636 3.296 1.174 0 1.32-.258 1.32-.7v-1.616c0-.515.11-.617.483-.617.274 0 .743.133 1.84 1.163 1.252 1.222 1.459 1.77 2.164 1.77h1.847c.528 0 .792-.258.64-.765-.167-.507-.765-1.24-1.559-2.111-.43-.496-1.076-1.03-1.272-1.298-.274-.343-.196-.496 0-.801 0 0 2.251-3.091 2.486-4.141z" fill="#337E88"/><defs><linearGradient id="bpaint0_linear_26_8" x1="20" y1="0" x2="20" y2="40" gradientUnits="userSpaceOnUse"><stop stop-color="#36838D" stop-opacity=".68"/><stop offset="1" stop-color="#D9D9D9" stop-opacity="0"/></linearGradient></defs></svg><svg fill="none" viewBox="0 0 13 13" id="check" xmlns="http://www.w3.org/2000/svg"><circle cx="6.5" cy="6.5" r="6.5" fill="#337E88" fill-opacity=".3"/></svg><svg fill="none" viewBox="0 0 140 31" id="logo" xmlns="http://www.w3.org/2000/svg"><g clip-path="url(#dclip0_1_6)"><path d="M.012.077c3.66.011 7.32.01 10.98 0-.006.405-.004.811.004 1.217-1.248.018-2.505-.074-3.748.059.52 1.955 1.119 3.892 1.625 5.852.772 2.982 1.677 5.926 2.466 8.903.617 2.367 1.305 4.716 1.97 7.07.903-2.664 1.555-5.404 2.357-8.099 1.197-3.982 2.263-8.002 3.462-11.984.175-.598.363-1.193.482-1.805-1.137-.008-2.274 0-3.41-.003a9.863 9.863 0 01.005-1.212c3.677.015 7.356.013 11.033.002-.004.403-.004.807 0 1.212-1.24.003-2.48-.012-3.72.011.852 3.517 1.967 6.966 2.858 10.473.863 3.184 1.811 6.343 2.642 9.535.176.636.308 1.287.58 1.892.892-3.275 1.923-6.511 2.8-9.792 1.172-4.033 2.344-8.066 3.458-12.116-1.382-.005-2.765-.013-4.146.005.057-.39-.142-.896.107-1.21 2.866-.015 5.732.01 8.597-.014.008.407.011.812.011 1.219-1.095.018-2.196-.066-3.287.057-1.013 3.532-2.004 7.068-3.055 10.588-1.013 3.738-2.175 7.433-3.198 11.17-.72 2.616-1.587 5.194-2.237 7.83-.479.012-.96.012-1.437.01-.845-3.482-1.805-6.936-2.64-10.42-.744-3.066-1.596-6.105-2.323-9.176-.619-2.608-1.332-5.193-1.991-7.79-1.18 3.974-2.265 7.976-3.455 11.947-.925 3.447-2.02 6.846-2.95 10.292-.473 1.726-.994 3.438-1.503 5.152a50.893 50.893 0 00-1.414-.002c-.827-2.96-1.585-5.94-2.45-8.89-.765-2.652-1.43-5.33-2.2-7.981-.856-2.915-1.583-5.864-2.43-8.78a209.316 209.316 0 01-1.106-3.956C1.84 1.238.924 1.303.012 1.29a32.83 32.83 0 000-1.213zm52.2 7.526c1.784-.01 3.57-.006 5.355-.001 1.082 3.484 2.359 6.903 3.491 10.37.55 1.708 1.169 3.393 1.757 5.087.766-1.824 1.348-3.717 2.028-5.573 1.238-3.28 2.34-6.609 3.577-9.89 1.776.01 3.553 0 5.33 0 .002.281.005.56.01.842-.61.023-1.222-.013-1.83.018l-.095.102c-.021 5.94-.02 11.883-.001 17.824l2.084-.003c-.002.294-.004.587-.004.882-2.354-.006-4.708.005-7.062-.005.002-.29.005-.58.012-.87.666-.005 1.334-.002 2-.005-.006-3.27.004-6.54-.004-9.809a5.213 5.213 0 01.073-.908c.13-.949.06-1.908.072-2.861-.014-1.015.042-2.034-.036-3.048a2.335 2.335 0 00-.464.943c-1.033 3.207-2.304 6.332-3.365 9.53-.957 2.534-1.837 5.096-2.746 7.648-.3-.004-.6-.01-.898-.024-.653-2.106-1.448-4.165-2.109-6.267-.91-2.863-1.966-5.676-2.863-8.541-.4-1.146-.74-2.314-1.2-3.438-.058 5.59-.017 11.185-.022 16.778.864-.008 1.726.006 2.59-.01.003.295.008.592.013.89-1.857-.01-3.712-.006-5.567-.001l.023-.884c.576.002 1.153.005 1.73 0-.004-5.979.001-11.957-.004-17.937-.612.003-1.225 0-1.837.013-.016-.286-.026-.57-.038-.852zm39.445.015c1.623-.044 3.25-.01 4.874-.018 1.499 2.557 3.05 5.085 4.551 7.639 1.245 1.961 2.318 4.03 3.634 5.947.028-4.247.031-8.496-.002-12.743-.941.005-1.883.005-2.823.002 0-.287.003-.573.01-.858 1.862.023 3.725.008 5.587.008 0 .277.001.556.01.835-.614.084-1.295-.111-1.862.112-.008 6.372-.008 12.746.002 19.12a40.3 40.3 0 00-.887.001c-3.198-5.307-6.37-10.63-9.55-15.95-.304-.486-.588-.987-.92-1.454-.016 5.375-.013 10.748-.004 16.123.96-.001 1.918.002 2.878-.003l.011.884c-1.83-.02-3.66.021-5.489-.021.002-.28.005-.556.01-.833.566-.038 1.133-.03 1.701-.028 0-5.979.002-11.957 0-17.936-.563.003-1.127 0-1.69.003l-.04-.83zm-50.535.215c.992-.31 2.049-.244 3.078-.243 1.562-.011 3.143.565 4.267 1.65 1.385 1.3 2.047 3.2 2.152 5.052.032 1.965.008 3.93.015 5.895.03 1.998-.572 4.076-1.966 5.564-1.315 1.346-3.271 1.919-5.13 1.868-1.823.062-3.71-.522-5.044-1.781-1.41-1.385-1.963-3.409-2.03-5.324-.163-1.527-.066-3.064-.094-4.595.097-1.396.125-2.82.614-4.151.606-1.881 2.208-3.42 4.138-3.935zm.973.717c-.652.121-1.262.5-1.577 1.089-.552 1.015-.618 2.201-.643 3.331-.003 3.17-.005 6.338 0 9.505.043 1.178.146 2.447.862 3.436.66.82 1.817.93 2.803.929.988.003 2.139-.112 2.784-.953.732-.966.796-2.244.805-3.407-.013-3.497.025-6.995-.021-10.492-.073-1.178-.307-2.648-1.502-3.223-1.102-.45-2.354-.368-3.511-.215zm78.181 2.25c.907-.421 2.182-.494 2.918.286.494.682.621 1.563.591 2.384-.051.612-.106 1.282-.512 1.779-.328.321-.88.347-1.285.175-.616-.366-.706-1.156-.761-1.798-.061-.674.113-1.4-.132-2.038-.567-.068-.973.488-1.323.859-.774 1.019-1.444 2.145-1.883 3.344-.038 2.977-.004 5.958-.017 8.936 1.008 0 2.016-.02 3.024.014 0 .28.005.564.011.846-2.559.016-5.119.018-7.678 0l.01-.843c.707-.033 1.414-.017 2.123-.023.03-4.083 0-8.167.015-12.251.013-.258-.063-.502-.137-.743-.67.034-1.34.016-2.008.026l.003-.846c1.127-.012 2.255.015 3.382-.01.628.822 1.053 1.81 1.169 2.838l.282.003c.543-1.093 1.114-2.285 2.208-2.938zm14.903.092c.825.021 1.655.01 2.482.01-.005 3.805-.002 7.609-.002 11.414.012.79-.074 1.596.145 2.37.657.022 1.316.013 1.975.013-.002.3-.002.6-.002.9-1.232-.03-2.47.047-3.695-.035-.846-.348-.843-1.404-.969-2.162-.71.961-1.568 1.903-2.724 2.33-1.037.4-2.221.363-3.255-.026-1.226-.488-1.95-1.792-1.978-3.062-.009-3.589.018-7.18-.012-10.768l-.068-.116c-.707-.03-1.414-.003-2.12-.007-.027-.267-.05-.534-.065-.8 1.594.001 3.191-.025 4.786.014-.015 4.278-.01 8.556-.004 12.835-.067.643.452 1.227 1.088 1.303 1.277.198 2.472-.581 3.253-1.518.409-.516.885-1.022 1.134-1.637.051-3.683-.011-7.372.031-11.058z" fill="#010101"/><path d="M82.825 7.157c.378 0 .76.002 1.141.01 1.064 3.83 2.097 7.671 3.221 11.485.708 2.578 1.413 5.158 2.154 7.727.615.003 1.23.005 1.845 0l.008.886c-2.304-.01-4.607-.002-6.911-.004.005-.292.01-.584.021-.874.715-.011 1.43.002 2.144-.018-.53-1.947-1.041-3.902-1.648-5.828-1.701.01-3.403 0-5.104.005-.642 1.933-1.287 3.865-1.832 5.825.903.023 1.807.003 2.712.011.002.292.002.587.005.88a965.94 965.94 0 00-5.748.003 82.307 82.307 0 010-.89c.637-.032 1.302.093 1.922-.053a713.625 713.625 0 003.125-9.875c1.034-3.08 1.934-6.201 2.945-9.29zm-.436 4.903a192.86 192.86 0 00-2.438 7.697c1.545.015 3.092.013 4.638 0-.543-2.032-1.079-4.066-1.656-6.09-.157-.543-.275-1.104-.544-1.607zm26.55 9.879c1.208-.604 2.622.6 2.581 1.848.151 1.288-1.149 2.626-2.473 2.143-1.683-.591-1.773-3.327-.108-3.991z" fill="#020202"/><path d="M82.39 12.06c.269.503.386 1.064.544 1.607.577 2.024 1.112 4.058 1.656 6.09-1.547.013-3.094.015-4.639 0 .765-2.58 1.567-5.15 2.439-7.697z" fill="#FEFEFE"/><path d="M69.378 9.595h-.497v7.012h.497V9.595z" fill="#010101"/></g><defs><clipPath id="dclip0_1_6"><path fill="#fff" d="M0 0h140v31H0z"/></clipPath></defs></svg><svg fill="none" viewBox="0 0 140 85" id="numb__1" xmlns="http://www.w3.org/2000/svg"><path d="M.576 41.72c0-27.5 17.16-39.93 35.31-40.04 18.26.11 35.42 12.54 35.42 40.04 0 28.05-17.16 39.93-35.42 40.04C17.736 81.65.576 69.77.576 41.72zm35.31-38.5c-13.09 0-24.53 7.15-24.53 38.5 0 31.79 11.44 38.5 24.53 38.5 13.2 0 24.75-6.93 24.75-38.5 0-31.35-11.55-38.5-24.75-38.5zm44.208 55.99l-1.65-.88c.22-.33 16.61-31.46 16.61-55h10.45V80h-10.45V18.73c-4.4 20.24-14.85 40.15-14.96 40.48zM139.292.36l-26.51 84.15h-1.76L137.532.36h1.76z" fill="#535454" fill-opacity=".1"/></svg><svg fill="none" viewBox="0 0 187 92" id="numb__2" xmlns="http://www.w3.org/2000/svg"><path d="M.895 45.24c0-30 18.72-43.56 38.52-43.68 19.92.12 38.64 13.68 38.64 43.68 0 30.6-18.72 43.56-38.64 43.68C19.615 88.8.895 75.84.895 45.24zm38.52-42c-14.28 0-26.76 7.8-26.76 42 0 34.68 12.48 42 26.76 42 14.4 0 27-7.56 27-42 0-34.2-12.6-42-27-42zm48.227 24.48c0-18.48 14.88-25.92 29.52-25.92 16.68 0 29.88 9.12 29.88 27 0 17.88-18.84 23.04-32.88 27.96-11.04 3.84-19.68 6.84-22.8 18.84h58.68V87h-61.92c0-23.28 11.16-27.24 25.44-32.16 14.28-4.92 21.72-8.88 21.72-26.04 0-17.64-8.28-25.44-18.12-25.44-15.24 0-17.04 14.64-17.04 26.04l-12.48-1.68zM186.324.12l-28.92 91.8h-1.92l28.92-91.8h1.92z" fill="#535454" fill-opacity=".1"/></svg><svg fill="none" viewBox="0 0 176 85" id="numb__3" xmlns="http://www.w3.org/2000/svg"><path d="M.368 41.72c0-27.5 17.16-39.93 35.31-40.04 18.26.11 35.42 12.54 35.42 40.04 0 28.05-17.16 39.93-35.42 40.04C17.528 81.65.368 69.77.368 41.72zm35.31-38.5c-13.09 0-24.53 7.15-24.53 38.5 0 31.79 11.44 38.5 24.53 38.5 13.2 0 24.75-6.93 24.75-38.5 0-31.35-11.55-38.5-24.75-38.5zm42.558 64.35l1.43-.66c6.82 9.57 17.49 13.31 25.85 13.31 19.8 0 24.53-7.37 24.53-21.67 0-13.86-7.04-19.25-23.1-19.25h-5.61v-1.43c13.75 0 23.76 0 23.76-17.05 0-13.09-3.96-17.6-17.6-17.6-16.28 0-16.72 13.53-16.72 23.98l-11-2.97c0-15.73 14.52-22.44 27.72-22.44 16.83 0 29.37 4.07 29.37 19.03 0 11.55-8.36 15.84-17.27 17.49 12.98 0 23.21 7.48 23.21 20.24 0 16.39-10.67 23.21-37.29 23.21-8.58 0-20.68-3.85-27.28-14.19zM175.5.36l-26.51 84.15h-1.76L173.74.36h1.76z" fill="#535454" fill-opacity=".1"/></svg><svg fill="none" viewBox="0 0 184 92" id="numb__4" xmlns="http://www.w3.org/2000/svg"><path d="M.009 45.24c0-30 18.72-43.56 38.52-43.68 19.92.12 38.64 13.68 38.64 43.68 0 30.6-18.72 43.56-38.64 43.68C18.729 88.8.009 75.84.009 45.24zm38.52-42c-14.28 0-26.76 7.8-26.76 42 0 34.68 12.48 42 26.76 42 14.4 0 27-7.56 27-42 0-34.2-12.6-42-27-42zm90.706 70.08h-44.28V71.4c4.56 0 15.48-11.16 25.8-26.4 8.88-13.08 18.48-30.96 18.48-41.64h11.4V71.4h9.36v1.92h-9.36V87h-11.4V73.32zm-39.24-1.92h39.24V13.92c-5.4 16.32-24.84 47.88-39.24 57.48zM183.212.12l-28.92 91.8h-1.92l28.92-91.8h1.92z" fill="#535454" fill-opacity=".1"/></svg><svg fill="none" viewBox="0 0 168 85" id="numb__5" xmlns="http://www.w3.org/2000/svg"><path d="M.718 41.72c0-27.5 17.16-39.93 35.31-40.04 18.26.11 35.42 12.54 35.42 40.04 0 28.05-17.16 39.93-35.42 40.04C17.878 81.65.718 69.77.718 41.72zm35.31-38.5c-13.09 0-24.53 7.15-24.53 38.5 0 31.79 11.44 38.5 24.53 38.5 13.2 0 24.75-6.93 24.75-38.5 0-31.35-11.55-38.5-24.75-38.5zm63.348 78.43c-9.35 0-16.06-2.64-19.14-4.07l.55-1.54c2.97 1.43 9.35 3.96 18.59 3.96 14.08 0 24.75-5.06 24.75-28.38 0-18.48-6.05-26.95-18.04-26.95-16.72 0-19.91 12.32-23.21 25.74h-1.87l3.19-47.08h46.53v10.34h-45.43l-1.76 27.39c4.07-12.76 10.67-18.04 22.44-18.04 16.06 0 29.04 10.01 29.04 28.6 0 24.53-17.49 30.03-35.64 30.03zM167.15.36l-26.51 84.15h-1.76L165.39.36h1.76z" fill="#535454" fill-opacity=".1"/></svg><svg fill="none" viewBox="0 0 198 132" id="sport-style" xmlns="http://www.w3.org/2000/svg"><circle cx="65.853" cy="65.853" r="46.163" transform="rotate(144.136 65.853 65.853)" stroke="#337E88" stroke-opacity=".2" stroke-width="2"/><circle cx="98.673" cy="65.853" r="46.163" transform="rotate(144.136 98.673 65.853)" stroke="#337E88" stroke-opacity=".2" stroke-width="2"/><circle cx="131.496" cy="65.853" r="46.163" transform="rotate(144.136 131.496 65.853)" stroke="#337E88" stroke-opacity=".2" stroke-width="2"/></svg></svg>